<svg xmlns="http://www.w3.org/2000/svg" width="30.573" height="16.667" viewBox="0 0 30.573 16.667">
  <g id="Grupo_3" data-name="Grupo 3" transform="translate(-0.875 -0.333)">
    <path id="Trazado_12" data-name="Trazado 12" d="M27.417,17H10.75a2.083,2.083,0,0,1-2.083-2.083V2.326A2.083,2.083,0,0,1,10.75.333H27.417A2.083,2.083,0,0,1,29.5,2.417v12.5A2.083,2.083,0,0,1,27.417,17ZM10.75,4.363V14.917H27.417V4.363L19.083,9.917Zm.833-1.946,7.5,5,7.5-5Z" transform="translate(1.948 0)" fill="#b03407"/>
    <path id="Trazado_13" data-name="Trazado 13" d="M14.938,13.125H5.563V11.563h9.375Zm0-3.906H.875V7.656H14.938Zm0-3.906H5.563V3.75h9.375Z" transform="translate(0 0.854)" fill="#b03407"/>
  </g>
</svg>
